<svg width="859" height="328" viewBox="0 0 859 328" fill="none" xmlns="http://www.w3.org/2000/svg">
<mask id="path-1-inside-1_1463_652" fill="white">
<path d="M859 288.496L671.5 287.5L635.5 328H65.5L29.5 287.5L0 287.656V25H275.5V65.5H583.5V25H859V288.496Z"/>
</mask>
<path d="M859 288.496L671.5 287.5L635.5 328H65.5L29.5 287.5L0 287.656V25H275.5V65.5H583.5V25H859V288.496Z" fill="url(#paint0_linear_1463_652)" fill-opacity="0.25"/>
<path d="M859 288.496L858.987 290.996L861.5 291.009V288.496H859ZM671.5 287.5L671.513 285L670.383 284.994L669.631 285.839L671.5 287.5ZM635.5 328V330.5H636.623L637.369 329.661L635.5 328ZM65.5 328L63.6315 329.661L64.3773 330.5H65.5V328ZM29.5 287.5L31.3685 285.839L30.6174 284.994L29.4868 285L29.5 287.5ZM0 287.656H-2.5V290.17L0.0132413 290.156L0 287.656ZM0 25V22.5H-2.5V25H0ZM275.5 25H278V22.5H275.5V25ZM275.5 65.5H273V68H275.5V65.5ZM583.5 65.5V68H586V65.5H583.5ZM583.5 25V22.5H581V25H583.5ZM859 25H861.5V22.5H859V25ZM859 288.496L859.013 285.996L671.513 285L671.5 287.5L671.487 290L858.987 290.996L859 288.496ZM671.5 287.5L669.631 285.839L633.631 326.339L635.5 328L637.369 329.661L673.369 289.161L671.5 287.5ZM635.5 328V325.5H65.5V328V330.5H635.5V328ZM65.5 328L67.3685 326.339L31.3685 285.839L29.5 287.5L27.6315 289.161L63.6315 329.661L65.5 328ZM29.5 287.5L29.4868 285L-0.0132413 285.156L0 287.656L0.0132413 290.156L29.5132 290L29.5 287.5ZM0 287.656H2.5V25H0H-2.5V287.656H0ZM0 25V27.5H275.5V25V22.5H0V25ZM275.5 25H273V65.5H275.5H278V25H275.5ZM275.5 65.5V68H583.5V65.5V63H275.5V65.5ZM583.5 65.5H586V25H583.5H581V65.5H583.5ZM583.5 25V27.5H859V25V22.5H583.5V25ZM859 25H856.5V288.496H859H861.5V25H859Z" fill="url(#paint1_linear_1463_652)" mask="url(#path-1-inside-1_1463_652)"/>
<mask id="path-3-inside-2_1463_652" fill="white">
<path d="M859 288.496L671.5 287.5L635.5 328H65.5L29.5 287.5L0 287.656V25H275.5V65.5H583.5V25H859V288.496Z"/>
</mask>
<path d="M859 288.496L671.5 287.5L635.5 328H65.5L29.5 287.5L0 287.656V25H275.5V65.5H583.5V25H859V288.496Z" fill="url(#paint2_linear_1463_652)" fill-opacity="0.25"/>
<path d="M859 288.496L858.987 290.996L861.5 291.009V288.496H859ZM671.5 287.5L671.513 285L670.383 284.994L669.631 285.839L671.5 287.5ZM635.5 328V330.5H636.623L637.369 329.661L635.5 328ZM65.5 328L63.6315 329.661L64.3773 330.5H65.5V328ZM29.5 287.5L31.3685 285.839L30.6174 284.994L29.4868 285L29.5 287.5ZM0 287.656H-2.5V290.17L0.0132413 290.156L0 287.656ZM0 25V22.5H-2.5V25H0ZM275.5 25H278V22.5H275.5V25ZM275.5 65.5H273V68H275.5V65.5ZM583.5 65.5V68H586V65.5H583.5ZM583.5 25V22.5H581V25H583.5ZM859 25H861.5V22.5H859V25ZM859 288.496L859.013 285.996L671.513 285L671.5 287.5L671.487 290L858.987 290.996L859 288.496ZM671.5 287.5L669.631 285.839L633.631 326.339L635.5 328L637.369 329.661L673.369 289.161L671.5 287.5ZM635.5 328V325.5H65.5V328V330.5H635.5V328ZM65.5 328L67.3685 326.339L31.3685 285.839L29.5 287.5L27.6315 289.161L63.6315 329.661L65.5 328ZM29.5 287.5L29.4868 285L-0.0132413 285.156L0 287.656L0.0132413 290.156L29.5132 290L29.5 287.5ZM0 287.656H2.5V25H0H-2.5V287.656H0ZM0 25V27.5H275.5V25V22.5H0V25ZM275.5 25H273V65.5H275.5H278V25H275.5ZM275.5 65.5V68H583.5V65.5V63H275.5V65.5ZM583.5 65.5H586V25H583.5H581V65.5H583.5ZM583.5 25V27.5H859V25V22.5H583.5V25ZM859 25H856.5V288.496H859H861.5V25H859Z" fill="url(#paint3_linear_1463_652)" mask="url(#path-3-inside-2_1463_652)"/>
<mask id="path-5-inside-3_1463_652" fill="white">
<path d="M575.75 23L576 22.75V56.5H284V22.75L306.75 0H552.75L575.75 23ZM299.125 26.2002L295.425 29.9004V41H313.925V37.2998H299.125V31.4355L300.66 29.9004H313.925V26.2002H299.125ZM326.868 26.2002L315.768 37.2998V41H327.33L330.567 37.7627V41H334.268V26.2002H326.868ZM339.811 26.2002L336.11 29.9004V41H339.811V35.4502H349.375L350.91 36.9854V41H354.61V35.4502L351.373 32.2129H354.61V26.2002H339.811ZM356.453 26.2002V32.2129H359.69L356.453 35.4502V41H374.953V37.2998H360.153V36.9854L361.688 35.4502H374.953V31.75H360.153V29.9004H374.953V26.2002H356.453ZM376.796 26.2002V32.2129H380.033L376.796 35.4502V41H395.296V37.2998H380.496V36.9854L382.031 35.4502H395.296V31.75H380.496V29.9004H395.296V26.2002H376.796ZM400.839 26.2002L397.139 29.9004V41H400.839V35.4502H410.403L411.938 36.9854V41H415.639V35.4502L412.401 32.2129H415.639V26.2002H400.839ZM423.028 26.2002V34.0625H426.266L423.028 37.2998V41H426.729V38.8359L428.264 37.2998H441.528V29.9004L437.828 26.2002H423.028ZM454.471 26.2002L443.371 37.2998V41H454.934L458.171 37.7627V41H461.871V26.2002H454.471ZM467.414 26.2002L463.714 29.9004V41H467.414V35.4502H476.979L478.514 36.9854V41H482.214V35.4502L478.977 32.2129H482.214V26.2002H467.414ZM484.057 26.2002V29.9004H489.921L491.456 31.4355V41H495.156V29.9004H502.557V26.2002H494.694V29.4375L491.456 26.2002H484.057ZM504.399 26.2002V41H508.1V29.9004H510.264L511.799 31.4355V37.2998L515.499 41H522.899V26.2002H519.199V37.2998H517.034L515.499 35.7646V29.9004L511.799 26.2002H504.399ZM524.742 26.2002V32.2129H527.979L524.742 35.4502V41H543.242V37.2998H528.442V36.9854L529.978 35.4502H543.242V31.75H528.442V29.9004H543.242V26.2002H524.742ZM548.785 26.2002L545.085 29.9004V41H548.785V35.4502H558.35L559.885 36.9854V41H563.585V35.4502L560.348 32.2129H563.585V26.2002H548.785ZM330.567 29.9004V36.8379L328.422 34.6914L325.795 37.2998H321.003L328.403 29.9004H330.567ZM458.171 29.9004V36.8379L456.024 34.6914L453.397 37.2998H448.606L456.006 29.9004H458.171ZM436.293 29.9004L437.828 31.4355V33.5996H426.729V29.9004H436.293ZM350.91 29.9004V31.75H339.811V31.4355L341.346 29.9004H350.91ZM411.938 29.9004V31.75H400.839V31.4355L402.374 29.9004H411.938ZM478.514 29.9004V31.75H467.414V31.4355L468.949 29.9004H478.514ZM559.885 29.9004V31.75H548.785V31.4355L550.32 29.9004H559.885Z"/>
</mask>
<path d="M575.75 23L576 22.75V56.5H284V22.75L306.75 0H552.75L575.75 23ZM299.125 26.2002L295.425 29.9004V41H313.925V37.2998H299.125V31.4355L300.66 29.9004H313.925V26.2002H299.125ZM326.868 26.2002L315.768 37.2998V41H327.33L330.567 37.7627V41H334.268V26.2002H326.868ZM339.811 26.2002L336.11 29.9004V41H339.811V35.4502H349.375L350.91 36.9854V41H354.61V35.4502L351.373 32.2129H354.61V26.2002H339.811ZM356.453 26.2002V32.2129H359.69L356.453 35.4502V41H374.953V37.2998H360.153V36.9854L361.688 35.4502H374.953V31.75H360.153V29.9004H374.953V26.2002H356.453ZM376.796 26.2002V32.2129H380.033L376.796 35.4502V41H395.296V37.2998H380.496V36.9854L382.031 35.4502H395.296V31.75H380.496V29.9004H395.296V26.2002H376.796ZM400.839 26.2002L397.139 29.9004V41H400.839V35.4502H410.403L411.938 36.9854V41H415.639V35.4502L412.401 32.2129H415.639V26.2002H400.839ZM423.028 26.2002V34.0625H426.266L423.028 37.2998V41H426.729V38.8359L428.264 37.2998H441.528V29.9004L437.828 26.2002H423.028ZM454.471 26.2002L443.371 37.2998V41H454.934L458.171 37.7627V41H461.871V26.2002H454.471ZM467.414 26.2002L463.714 29.9004V41H467.414V35.4502H476.979L478.514 36.9854V41H482.214V35.4502L478.977 32.2129H482.214V26.2002H467.414ZM484.057 26.2002V29.9004H489.921L491.456 31.4355V41H495.156V29.9004H502.557V26.2002H494.694V29.4375L491.456 26.2002H484.057ZM504.399 26.2002V41H508.1V29.9004H510.264L511.799 31.4355V37.2998L515.499 41H522.899V26.2002H519.199V37.2998H517.034L515.499 35.7646V29.9004L511.799 26.2002H504.399ZM524.742 26.2002V32.2129H527.979L524.742 35.4502V41H543.242V37.2998H528.442V36.9854L529.978 35.4502H543.242V31.75H528.442V29.9004H543.242V26.2002H524.742ZM548.785 26.2002L545.085 29.9004V41H548.785V35.4502H558.35L559.885 36.9854V41H563.585V35.4502L560.348 32.2129H563.585V26.2002H548.785ZM330.567 29.9004V36.8379L328.422 34.6914L325.795 37.2998H321.003L328.403 29.9004H330.567ZM458.171 29.9004V36.8379L456.024 34.6914L453.397 37.2998H448.606L456.006 29.9004H458.171ZM436.293 29.9004L437.828 31.4355V33.5996H426.729V29.9004H436.293ZM350.91 29.9004V31.75H339.811V31.4355L341.346 29.9004H350.91ZM411.938 29.9004V31.75H400.839V31.4355L402.374 29.9004H411.938ZM478.514 29.9004V31.75H467.414V31.4355L468.949 29.9004H478.514ZM559.885 29.9004V31.75H548.785V31.4355L550.32 29.9004H559.885Z" fill="url(#paint4_linear_1463_652)"/>
<path d="M575.75 23L575.396 23.3536L575.75 23.7071L576.104 23.3536L575.75 23ZM576 22.75H576.5V21.5429L575.646 22.3964L576 22.75ZM576 56.5V57H576.5V56.5H576ZM284 56.5H283.5V57H284V56.5ZM284 22.75L283.646 22.3964L283.5 22.5429V22.75H284ZM306.75 0V-0.5H306.543L306.396 -0.353553L306.75 0ZM552.75 0L553.104 -0.353553L552.957 -0.5H552.75V0ZM299.125 26.2002V25.7002H298.918L298.771 25.8466L299.125 26.2002ZM295.425 29.9004L295.071 29.5468L294.925 29.6933V29.9004H295.425ZM295.425 41H294.925V41.5H295.425V41ZM313.925 41V41.5H314.425V41H313.925ZM313.925 37.2998H314.425V36.7998H313.925V37.2998ZM299.125 37.2998H298.625V37.7998H299.125V37.2998ZM299.125 31.4355L298.771 31.082L298.625 31.2284V31.4355H299.125ZM300.66 29.9004V29.4004H300.453L300.307 29.5468L300.66 29.9004ZM313.925 29.9004V30.4004H314.425V29.9004H313.925ZM313.925 26.2002H314.425V25.7002H313.925V26.2002ZM326.868 26.2002V25.7002H326.661L326.515 25.8466L326.868 26.2002ZM315.768 37.2998L315.414 36.9462L315.268 37.0927V37.2998H315.768ZM315.768 41H315.268V41.5H315.768V41ZM327.33 41V41.5H327.537L327.684 41.3536L327.33 41ZM330.567 37.7627H331.067V36.5556L330.214 37.4091L330.567 37.7627ZM330.567 41H330.067V41.5H330.567V41ZM334.268 41V41.5H334.768V41H334.268ZM334.268 26.2002H334.768V25.7002H334.268V26.2002ZM339.811 26.2002V25.7002H339.603L339.457 25.8466L339.811 26.2002ZM336.11 29.9004L335.757 29.5468L335.61 29.6933V29.9004H336.11ZM336.11 41H335.61V41.5H336.11V41ZM339.811 41V41.5H340.311V41H339.811ZM339.811 35.4502V34.9502H339.311V35.4502H339.811ZM349.375 35.4502L349.729 35.0966L349.582 34.9502H349.375V35.4502ZM350.91 36.9854H351.41V36.7782L351.264 36.6318L350.91 36.9854ZM350.91 41H350.41V41.5H350.91V41ZM354.61 41V41.5H355.11V41H354.61ZM354.61 35.4502H355.11V35.2431L354.964 35.0966L354.61 35.4502ZM351.373 32.2129V31.7129H350.166L351.019 32.5664L351.373 32.2129ZM354.61 32.2129V32.7129H355.11V32.2129H354.61ZM354.61 26.2002H355.11V25.7002H354.61V26.2002ZM356.453 26.2002V25.7002H355.953V26.2002H356.453ZM356.453 32.2129H355.953V32.7129H356.453V32.2129ZM359.69 32.2129L360.044 32.5664L360.898 31.7129H359.69V32.2129ZM356.453 35.4502L356.1 35.0966L355.953 35.2431V35.4502H356.453ZM356.453 41H355.953V41.5H356.453V41ZM374.953 41V41.5H375.453V41H374.953ZM374.953 37.2998H375.453V36.7998H374.953V37.2998ZM360.153 37.2998H359.653V37.7998H360.153V37.2998ZM360.153 36.9854L359.8 36.6318L359.653 36.7782V36.9854H360.153ZM361.688 35.4502V34.9502H361.481L361.335 35.0966L361.688 35.4502ZM374.953 35.4502V35.9502H375.453V35.4502H374.953ZM374.953 31.75H375.453V31.25H374.953V31.75ZM360.153 31.75H359.653V32.25H360.153V31.75ZM360.153 29.9004V29.4004H359.653V29.9004H360.153ZM374.953 29.9004V30.4004H375.453V29.9004H374.953ZM374.953 26.2002H375.453V25.7002H374.953V26.2002ZM376.796 26.2002V25.7002H376.296V26.2002H376.796ZM376.796 32.2129H376.296V32.7129H376.796V32.2129ZM380.033 32.2129L380.387 32.5664L381.24 31.7129H380.033V32.2129ZM376.796 35.4502L376.442 35.0966L376.296 35.2431V35.4502H376.796ZM376.796 41H376.296V41.5H376.796V41ZM395.296 41V41.5H395.796V41H395.296ZM395.296 37.2998H395.796V36.7998H395.296V37.2998ZM380.496 37.2998H379.996V37.7998H380.496V37.2998ZM380.496 36.9854L380.143 36.6318L379.996 36.7782V36.9854H380.496ZM382.031 35.4502V34.9502H381.824L381.678 35.0966L382.031 35.4502ZM395.296 35.4502V35.9502H395.796V35.4502H395.296ZM395.296 31.75H395.796V31.25H395.296V31.75ZM380.496 31.75H379.996V32.25H380.496V31.75ZM380.496 29.9004V29.4004H379.996V29.9004H380.496ZM395.296 29.9004V30.4004H395.796V29.9004H395.296ZM395.296 26.2002H395.796V25.7002H395.296V26.2002ZM400.839 26.2002V25.7002H400.632L400.485 25.8466L400.839 26.2002ZM397.139 29.9004L396.785 29.5468L396.639 29.6933V29.9004H397.139ZM397.139 41H396.639V41.5H397.139V41ZM400.839 41V41.5H401.339V41H400.839ZM400.839 35.4502V34.9502H400.339V35.4502H400.839ZM410.403 35.4502L410.757 35.0966L410.61 34.9502H410.403V35.4502ZM411.938 36.9854H412.438V36.7782L412.292 36.6318L411.938 36.9854ZM411.938 41H411.438V41.5H411.938V41ZM415.639 41V41.5H416.139V41H415.639ZM415.639 35.4502H416.139V35.2431L415.992 35.0966L415.639 35.4502ZM412.401 32.2129V31.7129H411.194L412.048 32.5664L412.401 32.2129ZM415.639 32.2129V32.7129H416.139V32.2129H415.639ZM415.639 26.2002H416.139V25.7002H415.639V26.2002ZM423.028 26.2002V25.7002H422.528V26.2002H423.028ZM423.028 34.0625H422.528V34.5625H423.028V34.0625ZM426.266 34.0625L426.619 34.4161L427.473 33.5625H426.266V34.0625ZM423.028 37.2998L422.675 36.9463L422.528 37.0927V37.2998H423.028ZM423.028 41H422.528V41.5H423.028V41ZM426.729 41V41.5H427.229V41H426.729ZM426.729 38.8359L426.375 38.4825L426.229 38.6289V38.8359H426.729ZM428.264 37.2998V36.7998H428.056L427.91 36.9464L428.264 37.2998ZM441.528 37.2998V37.7998H442.028V37.2998H441.528ZM441.528 29.9004H442.028V29.6933L441.882 29.5468L441.528 29.9004ZM437.828 26.2002L438.182 25.8466L438.035 25.7002H437.828V26.2002ZM454.471 26.2002V25.7002H454.264L454.117 25.8466L454.471 26.2002ZM443.371 37.2998L443.018 36.9463L442.871 37.0927V37.2998H443.371ZM443.371 41H442.871V41.5H443.371V41ZM454.934 41V41.5H455.141L455.287 41.3536L454.934 41ZM458.171 37.7627H458.671V36.5556L457.817 37.4091L458.171 37.7627ZM458.171 41H457.671V41.5H458.171V41ZM461.871 41V41.5H462.371V41H461.871ZM461.871 26.2002H462.371V25.7002H461.871V26.2002ZM467.414 26.2002V25.7002H467.207L467.061 25.8466L467.414 26.2002ZM463.714 29.9004L463.36 29.5468L463.214 29.6933V29.9004H463.714ZM463.714 41H463.214V41.5H463.714V41ZM467.414 41V41.5H467.914V41H467.414ZM467.414 35.4502V34.9502H466.914V35.4502H467.414ZM476.979 35.4502L477.332 35.0966L477.186 34.9502H476.979V35.4502ZM478.514 36.9854H479.014V36.7782L478.867 36.6318L478.514 36.9854ZM478.514 41H478.014V41.5H478.514V41ZM482.214 41V41.5H482.714V41H482.214ZM482.214 35.4502H482.714V35.2431L482.567 35.0966L482.214 35.4502ZM478.977 32.2129V31.7129H477.769L478.623 32.5664L478.977 32.2129ZM482.214 32.2129V32.7129H482.714V32.2129H482.214ZM482.214 26.2002H482.714V25.7002H482.214V26.2002ZM484.057 26.2002V25.7002H483.557V26.2002H484.057ZM484.057 29.9004H483.557V30.4004H484.057V29.9004ZM489.921 29.9004L490.274 29.5468L490.128 29.4004H489.921V29.9004ZM491.456 31.4355H491.956V31.2284L491.81 31.082L491.456 31.4355ZM491.456 41H490.956V41.5H491.456V41ZM495.156 41V41.5H495.656V41H495.156ZM495.156 29.9004V29.4004H494.656V29.9004H495.156ZM502.557 29.9004V30.4004H503.057V29.9004H502.557ZM502.557 26.2002H503.057V25.7002H502.557V26.2002ZM494.694 26.2002V25.7002H494.194V26.2002H494.694ZM494.694 29.4375L494.341 29.7911L495.194 30.6444V29.4375H494.694ZM491.456 26.2002L491.81 25.8466L491.663 25.7002H491.456V26.2002ZM504.399 26.2002V25.7002H503.899V26.2002H504.399ZM504.399 41H503.899V41.5H504.399V41ZM508.1 41V41.5H508.6V41H508.1ZM508.1 29.9004V29.4004H507.6V29.9004H508.1ZM510.264 29.9004L510.617 29.5468L510.471 29.4004H510.264V29.9004ZM511.799 31.4355H512.299V31.2284L512.152 31.082L511.799 31.4355ZM511.799 37.2998H511.299V37.5069L511.445 37.6534L511.799 37.2998ZM515.499 41L515.145 41.3536L515.292 41.5H515.499V41ZM522.899 41V41.5H523.399V41H522.899ZM522.899 26.2002H523.399V25.7002H522.899V26.2002ZM519.199 26.2002V25.7002H518.699V26.2002H519.199ZM519.199 37.2998V37.7998H519.699V37.2998H519.199ZM517.034 37.2998L516.681 37.6534L516.827 37.7998H517.034V37.2998ZM515.499 35.7646H514.999V35.9718L515.145 36.1182L515.499 35.7646ZM515.499 29.9004H515.999V29.6933L515.853 29.5468L515.499 29.9004ZM511.799 26.2002L512.152 25.8466L512.006 25.7002H511.799V26.2002ZM524.742 26.2002V25.7002H524.242V26.2002H524.742ZM524.742 32.2129H524.242V32.7129H524.742V32.2129ZM527.979 32.2129L528.333 32.5664L529.187 31.7129H527.979V32.2129ZM524.742 35.4502L524.389 35.0966L524.242 35.2431V35.4502H524.742ZM524.742 41H524.242V41.5H524.742V41ZM543.242 41V41.5H543.742V41H543.242ZM543.242 37.2998H543.742V36.7998H543.242V37.2998ZM528.442 37.2998H527.942V37.7998H528.442V37.2998ZM528.442 36.9854L528.089 36.6318L527.942 36.7782V36.9854H528.442ZM529.978 35.4502V34.9502H529.77L529.624 35.0966L529.978 35.4502ZM543.242 35.4502V35.9502H543.742V35.4502H543.242ZM543.242 31.75H543.742V31.25H543.242V31.75ZM528.442 31.75H527.942V32.25H528.442V31.75ZM528.442 29.9004V29.4004H527.942V29.9004H528.442ZM543.242 29.9004V30.4004H543.742V29.9004H543.242ZM543.242 26.2002H543.742V25.7002H543.242V26.2002ZM548.785 26.2002V25.7002H548.578L548.432 25.8466L548.785 26.2002ZM545.085 29.9004L544.731 29.5468L544.585 29.6933V29.9004H545.085ZM545.085 41H544.585V41.5H545.085V41ZM548.785 41V41.5H549.285V41H548.785ZM548.785 35.4502V34.9502H548.285V35.4502H548.785ZM558.35 35.4502L558.703 35.0966L558.557 34.9502H558.35V35.4502ZM559.885 36.9854H560.385V36.7782L560.238 36.6318L559.885 36.9854ZM559.885 41H559.385V41.5H559.885V41ZM563.585 41V41.5H564.085V41H563.585ZM563.585 35.4502H564.085V35.2431L563.939 35.0966L563.585 35.4502ZM560.348 32.2129V31.7129H559.141L559.994 32.5664L560.348 32.2129ZM563.585 32.2129V32.7129H564.085V32.2129H563.585ZM563.585 26.2002H564.085V25.7002H563.585V26.2002ZM330.567 29.9004H331.067V29.4004H330.567V29.9004ZM330.567 36.8379L330.214 37.1914L331.067 38.0454V36.8379H330.567ZM328.422 34.6914L328.776 34.3379L328.423 33.9855L328.07 34.3366L328.422 34.6914ZM325.795 37.2998V37.7998H326.001L326.147 37.6546L325.795 37.2998ZM321.003 37.2998L320.649 36.9462L319.796 37.7998H321.003V37.2998ZM328.403 29.9004V29.4004H328.196L328.05 29.5468L328.403 29.9004ZM458.171 29.9004H458.671V29.4004H458.171V29.9004ZM458.171 36.8379L457.817 37.1914L458.671 38.045V36.8379H458.171ZM456.024 34.6914L456.378 34.3379L456.026 33.9855L455.672 34.3366L456.024 34.6914ZM453.397 37.2998V37.7998H453.604L453.75 37.6546L453.397 37.2998ZM448.606 37.2998L448.253 36.9463L447.399 37.7998H448.606V37.2998ZM456.006 29.9004V29.4004H455.799L455.652 29.5468L456.006 29.9004ZM436.293 29.9004L436.647 29.5468L436.5 29.4004H436.293V29.9004ZM437.828 31.4355H438.328V31.2284L438.182 31.082L437.828 31.4355ZM437.828 33.5996V34.0996H438.328V33.5996H437.828ZM426.729 33.5996H426.229V34.0996H426.729V33.5996ZM426.729 29.9004V29.4004H426.229V29.9004H426.729ZM350.91 29.9004H351.41V29.4004H350.91V29.9004ZM350.91 31.75V32.25H351.41V31.75H350.91ZM339.811 31.75H339.311V32.25H339.811V31.75ZM339.811 31.4355L339.457 31.082L339.311 31.2284V31.4355H339.811ZM341.346 29.9004V29.4004H341.139L340.992 29.5468L341.346 29.9004ZM411.938 29.9004H412.438V29.4004H411.938V29.9004ZM411.938 31.75V32.25H412.438V31.75H411.938ZM400.839 31.75H400.339V32.25H400.839V31.75ZM400.839 31.4355L400.485 31.082L400.339 31.2284V31.4355H400.839ZM402.374 29.9004V29.4004H402.167L402.02 29.5468L402.374 29.9004ZM478.514 29.9004H479.014V29.4004H478.514V29.9004ZM478.514 31.75V32.25H479.014V31.75H478.514ZM467.414 31.75H466.914V32.25H467.414V31.75ZM467.414 31.4355L467.061 31.082L466.914 31.2284V31.4355H467.414ZM468.949 29.9004V29.4004H468.742L468.596 29.5468L468.949 29.9004ZM559.885 29.9004H560.385V29.4004H559.885V29.9004ZM559.885 31.75V32.25H560.385V31.75H559.885ZM548.785 31.75H548.285V32.25H548.785V31.75ZM548.785 31.4355L548.432 31.082L548.285 31.2284V31.4355H548.785ZM550.32 29.9004V29.4004H550.113L549.967 29.5468L550.32 29.9004ZM575.75 23L576.104 23.3536L576.354 23.1036L576 22.75L575.646 22.3964L575.396 22.6464L575.75 23ZM576 22.75H575.5V56.5H576H576.5V22.75H576ZM576 56.5V56H284V56.5V57H576V56.5ZM284 56.5H284.5V22.75H284H283.5V56.5H284ZM284 22.75L284.354 23.1036L307.104 0.353553L306.75 0L306.396 -0.353553L283.646 22.3964L284 22.75ZM306.75 0V0.5H552.75V0V-0.5H306.75V0ZM552.75 0L552.396 0.353553L575.396 23.3536L575.75 23L576.104 22.6464L553.104 -0.353553L552.75 0ZM299.125 26.2002L298.771 25.8466L295.071 29.5468L295.425 29.9004L295.778 30.2539L299.479 26.5537L299.125 26.2002ZM295.425 29.9004H294.925V41H295.425H295.925V29.9004H295.425ZM295.425 41V41.5H313.925V41V40.5H295.425V41ZM313.925 41H314.425V37.2998H313.925H313.425V41H313.925ZM313.925 37.2998V36.7998H299.125V37.2998V37.7998H313.925V37.2998ZM299.125 37.2998H299.625V31.4355H299.125H298.625V37.2998H299.125ZM299.125 31.4355L299.479 31.7891L301.014 30.2539L300.66 29.9004L300.307 29.5468L298.771 31.082L299.125 31.4355ZM300.66 29.9004V30.4004H313.925V29.9004V29.4004H300.66V29.9004ZM313.925 29.9004H314.425V26.2002H313.925H313.425V29.9004H313.925ZM313.925 26.2002V25.7002H299.125V26.2002V26.7002H313.925V26.2002ZM326.868 26.2002L326.515 25.8466L315.414 36.9462L315.768 37.2998L316.121 37.6534L327.222 26.5538L326.868 26.2002ZM315.768 37.2998H315.268V41H315.768H316.268V37.2998H315.768ZM315.768 41V41.5H327.33V41V40.5H315.768V41ZM327.33 41L327.684 41.3536L330.921 38.1162L330.567 37.7627L330.214 37.4091L326.977 40.6464L327.33 41ZM330.567 37.7627H330.067V41H330.567H331.067V37.7627H330.567ZM330.567 41V41.5H334.268V41V40.5H330.567V41ZM334.268 41H334.768V26.2002H334.268H333.768V41H334.268ZM334.268 26.2002V25.7002H326.868V26.2002V26.7002H334.268V26.2002ZM339.811 26.2002L339.457 25.8466L335.757 29.5468L336.11 29.9004L336.464 30.2539L340.164 26.5537L339.811 26.2002ZM336.11 29.9004H335.61V41H336.11H336.61V29.9004H336.11ZM336.11 41V41.5H339.811V41V40.5H336.11V41ZM339.811 41H340.311V35.4502H339.811H339.311V41H339.811ZM339.811 35.4502V35.9502H349.375V35.4502V34.9502H339.811V35.4502ZM349.375 35.4502L349.021 35.8037L350.557 37.3389L350.91 36.9854L351.264 36.6318L349.729 35.0966L349.375 35.4502ZM350.91 36.9854H350.41V41H350.91H351.41V36.9854H350.91ZM350.91 41V41.5H354.61V41V40.5H350.91V41ZM354.61 41H355.11V35.4502H354.61H354.11V41H354.61ZM354.61 35.4502L354.964 35.0966L351.727 31.8593L351.373 32.2129L351.019 32.5664L354.257 35.8037L354.61 35.4502ZM351.373 32.2129V32.7129H354.61V32.2129V31.7129H351.373V32.2129ZM354.61 32.2129H355.11V26.2002H354.61H354.11V32.2129H354.61ZM354.61 26.2002V25.7002H339.811V26.2002V26.7002H354.61V26.2002ZM356.453 26.2002H355.953V32.2129H356.453H356.953V26.2002H356.453ZM356.453 32.2129V32.7129H359.69V32.2129V31.7129H356.453V32.2129ZM359.69 32.2129L359.337 31.8593L356.1 35.0966L356.453 35.4502L356.807 35.8037L360.044 32.5664L359.69 32.2129ZM356.453 35.4502H355.953V41H356.453H356.953V35.4502H356.453ZM356.453 41V41.5H374.953V41V40.5H356.453V41ZM374.953 41H375.453V37.2998H374.953H374.453V41H374.953ZM374.953 37.2998V36.7998H360.153V37.2998V37.7998H374.953V37.2998ZM360.153 37.2998H360.653V36.9854H360.153H359.653V37.2998H360.153ZM360.153 36.9854L360.507 37.3389L362.042 35.8037L361.688 35.4502L361.335 35.0966L359.8 36.6318L360.153 36.9854ZM361.688 35.4502V35.9502H374.953V35.4502V34.9502H361.688V35.4502ZM374.953 35.4502H375.453V31.75H374.953H374.453V35.4502H374.953ZM374.953 31.75V31.25H360.153V31.75V32.25H374.953V31.75ZM360.153 31.75H360.653V29.9004H360.153H359.653V31.75H360.153ZM360.153 29.9004V30.4004H374.953V29.9004V29.4004H360.153V29.9004ZM374.953 29.9004H375.453V26.2002H374.953H374.453V29.9004H374.953ZM374.953 26.2002V25.7002H356.453V26.2002V26.7002H374.953V26.2002ZM376.796 26.2002H376.296V32.2129H376.796H377.296V26.2002H376.796ZM376.796 32.2129V32.7129H380.033V32.2129V31.7129H376.796V32.2129ZM380.033 32.2129L379.68 31.8593L376.442 35.0966L376.796 35.4502L377.149 35.8037L380.387 32.5664L380.033 32.2129ZM376.796 35.4502H376.296V41H376.796H377.296V35.4502H376.796ZM376.796 41V41.5H395.296V41V40.5H376.796V41ZM395.296 41H395.796V37.2998H395.296H394.796V41H395.296ZM395.296 37.2998V36.7998H380.496V37.2998V37.7998H395.296V37.2998ZM380.496 37.2998H380.996V36.9854H380.496H379.996V37.2998H380.496ZM380.496 36.9854L380.85 37.3389L382.385 35.8037L382.031 35.4502L381.678 35.0966L380.143 36.6318L380.496 36.9854ZM382.031 35.4502V35.9502H395.296V35.4502V34.9502H382.031V35.4502ZM395.296 35.4502H395.796V31.75H395.296H394.796V35.4502H395.296ZM395.296 31.75V31.25H380.496V31.75V32.25H395.296V31.75ZM380.496 31.75H380.996V29.9004H380.496H379.996V31.75H380.496ZM380.496 29.9004V30.4004H395.296V29.9004V29.4004H380.496V29.9004ZM395.296 29.9004H395.796V26.2002H395.296H394.796V29.9004H395.296ZM395.296 26.2002V25.7002H376.796V26.2002V26.7002H395.296V26.2002ZM400.839 26.2002L400.485 25.8466L396.785 29.5468L397.139 29.9004L397.492 30.2539L401.192 26.5537L400.839 26.2002ZM397.139 29.9004H396.639V41H397.139H397.639V29.9004H397.139ZM397.139 41V41.5H400.839V41V40.5H397.139V41ZM400.839 41H401.339V35.4502H400.839H400.339V41H400.839ZM400.839 35.4502V35.9502H410.403V35.4502V34.9502H400.839V35.4502ZM410.403 35.4502L410.05 35.8037L411.585 37.3389L411.938 36.9854L412.292 36.6318L410.757 35.0966L410.403 35.4502ZM411.938 36.9854H411.438V41H411.938H412.438V36.9854H411.938ZM411.938 41V41.5H415.639V41V40.5H411.938V41ZM415.639 41H416.139V35.4502H415.639H415.139V41H415.639ZM415.639 35.4502L415.992 35.0966L412.755 31.8593L412.401 32.2129L412.048 32.5664L415.285 35.8037L415.639 35.4502ZM412.401 32.2129V32.7129H415.639V32.2129V31.7129H412.401V32.2129ZM415.639 32.2129H416.139V26.2002H415.639H415.139V32.2129H415.639ZM415.639 26.2002V25.7002H400.839V26.2002V26.7002H415.639V26.2002ZM423.028 26.2002H422.528V34.0625H423.028H423.528V26.2002H423.028ZM423.028 34.0625V34.5625H426.266V34.0625V33.5625H423.028V34.0625ZM426.266 34.0625L425.912 33.7089L422.675 36.9463L423.028 37.2998L423.382 37.6534L426.619 34.4161L426.266 34.0625ZM423.028 37.2998H422.528V41H423.028H423.528V37.2998H423.028ZM423.028 41V41.5H426.729V41V40.5H423.028V41ZM426.729 41H427.229V38.8359H426.729H426.229V41H426.729ZM426.729 38.8359L427.082 39.1894L428.617 37.6532L428.264 37.2998L427.91 36.9464L426.375 38.4825L426.729 38.8359ZM428.264 37.2998V37.7998H441.528V37.2998V36.7998H428.264V37.2998ZM441.528 37.2998H442.028V29.9004H441.528H441.028V37.2998H441.528ZM441.528 29.9004L441.882 29.5468L438.182 25.8466L437.828 26.2002L437.475 26.5537L441.175 30.2539L441.528 29.9004ZM437.828 26.2002V25.7002H423.028V26.2002V26.7002H437.828V26.2002ZM454.471 26.2002L454.117 25.8466L443.018 36.9463L443.371 37.2998L443.725 37.6534L454.824 26.5537L454.471 26.2002ZM443.371 37.2998H442.871V41H443.371H443.871V37.2998H443.371ZM443.371 41V41.5H454.934V41V40.5H443.371V41ZM454.934 41L455.287 41.3536L458.524 38.1162L458.171 37.7627L457.817 37.4091L454.58 40.6464L454.934 41ZM458.171 37.7627H457.671V41H458.171H458.671V37.7627H458.171ZM458.171 41V41.5H461.871V41V40.5H458.171V41ZM461.871 41H462.371V26.2002H461.871H461.371V41H461.871ZM461.871 26.2002V25.7002H454.471V26.2002V26.7002H461.871V26.2002ZM467.414 26.2002L467.061 25.8466L463.36 29.5468L463.714 29.9004L464.067 30.2539L467.768 26.5537L467.414 26.2002ZM463.714 29.9004H463.214V41H463.714H464.214V29.9004H463.714ZM463.714 41V41.5H467.414V41V40.5H463.714V41ZM467.414 41H467.914V35.4502H467.414H466.914V41H467.414ZM467.414 35.4502V35.9502H476.979V35.4502V34.9502H467.414V35.4502ZM476.979 35.4502L476.625 35.8037L478.16 37.3389L478.514 36.9854L478.867 36.6318L477.332 35.0966L476.979 35.4502ZM478.514 36.9854H478.014V41H478.514H479.014V36.9854H478.514ZM478.514 41V41.5H482.214V41V40.5H478.514V41ZM482.214 41H482.714V35.4502H482.214H481.714V41H482.214ZM482.214 35.4502L482.567 35.0966L479.33 31.8593L478.977 32.2129L478.623 32.5664L481.86 35.8037L482.214 35.4502ZM478.977 32.2129V32.7129H482.214V32.2129V31.7129H478.977V32.2129ZM482.214 32.2129H482.714V26.2002H482.214H481.714V32.2129H482.214ZM482.214 26.2002V25.7002H467.414V26.2002V26.7002H482.214V26.2002ZM484.057 26.2002H483.557V29.9004H484.057H484.557V26.2002H484.057ZM484.057 29.9004V30.4004H489.921V29.9004V29.4004H484.057V29.9004ZM489.921 29.9004L489.567 30.2539L491.103 31.7891L491.456 31.4355L491.81 31.082L490.274 29.5468L489.921 29.9004ZM491.456 31.4355H490.956V41H491.456H491.956V31.4355H491.456ZM491.456 41V41.5H495.156V41V40.5H491.456V41ZM495.156 41H495.656V29.9004H495.156H494.656V41H495.156ZM495.156 29.9004V30.4004H502.557V29.9004V29.4004H495.156V29.9004ZM502.557 29.9004H503.057V26.2002H502.557H502.057V29.9004H502.557ZM502.557 26.2002V25.7002H494.694V26.2002V26.7002H502.557V26.2002ZM494.694 26.2002H494.194V29.4375H494.694H495.194V26.2002H494.694ZM494.694 29.4375L495.048 29.0839L491.81 25.8466L491.456 26.2002L491.103 26.5538L494.341 29.7911L494.694 29.4375ZM491.456 26.2002V25.7002H484.057V26.2002V26.7002H491.456V26.2002ZM504.399 26.2002H503.899V41H504.399H504.899V26.2002H504.399ZM504.399 41V41.5H508.1V41V40.5H504.399V41ZM508.1 41H508.6V29.9004H508.1H507.6V41H508.1ZM508.1 29.9004V30.4004H510.264V29.9004V29.4004H508.1V29.9004ZM510.264 29.9004L509.91 30.2539L511.445 31.7891L511.799 31.4355L512.152 31.082L510.617 29.5468L510.264 29.9004ZM511.799 31.4355H511.299V37.2998H511.799H512.299V31.4355H511.799ZM511.799 37.2998L511.445 37.6534L515.145 41.3536L515.499 41L515.853 40.6464L512.152 36.9463L511.799 37.2998ZM515.499 41V41.5H522.899V41V40.5H515.499V41ZM522.899 41H523.399V26.2002H522.899H522.399V41H522.899ZM522.899 26.2002V25.7002H519.199V26.2002V26.7002H522.899V26.2002ZM519.199 26.2002H518.699V37.2998H519.199H519.699V26.2002H519.199ZM519.199 37.2998V36.7998H517.034V37.2998V37.7998H519.199V37.2998ZM517.034 37.2998L517.388 36.9463L515.853 35.4111L515.499 35.7646L515.145 36.1182L516.681 37.6534L517.034 37.2998ZM515.499 35.7646H515.999V29.9004H515.499H514.999V35.7646H515.499ZM515.499 29.9004L515.853 29.5468L512.152 25.8466L511.799 26.2002L511.445 26.5537L515.145 30.2539L515.499 29.9004ZM511.799 26.2002V25.7002H504.399V26.2002V26.7002H511.799V26.2002ZM524.742 26.2002H524.242V32.2129H524.742H525.242V26.2002H524.742ZM524.742 32.2129V32.7129H527.979V32.2129V31.7129H524.742V32.2129ZM527.979 32.2129L527.626 31.8593L524.389 35.0966L524.742 35.4502L525.096 35.8037L528.333 32.5664L527.979 32.2129ZM524.742 35.4502H524.242V41H524.742H525.242V35.4502H524.742ZM524.742 41V41.5H543.242V41V40.5H524.742V41ZM543.242 41H543.742V37.2998H543.242H542.742V41H543.242ZM543.242 37.2998V36.7998H528.442V37.2998V37.7998H543.242V37.2998ZM528.442 37.2998H528.942V36.9854H528.442H527.942V37.2998H528.442ZM528.442 36.9854L528.796 37.3389L530.331 35.8037L529.978 35.4502L529.624 35.0966L528.089 36.6318L528.442 36.9854ZM529.978 35.4502V35.9502H543.242V35.4502V34.9502H529.978V35.4502ZM543.242 35.4502H543.742V31.75H543.242H542.742V35.4502H543.242ZM543.242 31.75V31.25H528.442V31.75V32.25H543.242V31.75ZM528.442 31.75H528.942V29.9004H528.442H527.942V31.75H528.442ZM528.442 29.9004V30.4004H543.242V29.9004V29.4004H528.442V29.9004ZM543.242 29.9004H543.742V26.2002H543.242H542.742V29.9004H543.242ZM543.242 26.2002V25.7002H524.742V26.2002V26.7002H543.242V26.2002ZM548.785 26.2002L548.432 25.8466L544.731 29.5468L545.085 29.9004L545.439 30.2539L549.139 26.5537L548.785 26.2002ZM545.085 29.9004H544.585V41H545.085H545.585V29.9004H545.085ZM545.085 41V41.5H548.785V41V40.5H545.085V41ZM548.785 41H549.285V35.4502H548.785H548.285V41H548.785ZM548.785 35.4502V35.9502H558.35V35.4502V34.9502H548.785V35.4502ZM558.35 35.4502L557.996 35.8037L559.531 37.3389L559.885 36.9854L560.238 36.6318L558.703 35.0966L558.35 35.4502ZM559.885 36.9854H559.385V41H559.885H560.385V36.9854H559.885ZM559.885 41V41.5H563.585V41V40.5H559.885V41ZM563.585 41H564.085V35.4502H563.585H563.085V41H563.585ZM563.585 35.4502L563.939 35.0966L560.701 31.8593L560.348 32.2129L559.994 32.5664L563.231 35.8037L563.585 35.4502ZM560.348 32.2129V32.7129H563.585V32.2129V31.7129H560.348V32.2129ZM563.585 32.2129H564.085V26.2002H563.585H563.085V32.2129H563.585ZM563.585 26.2002V25.7002H548.785V26.2002V26.7002H563.585V26.2002ZM330.567 29.9004H330.067V36.8379H330.567H331.067V29.9004H330.567ZM330.567 36.8379L330.921 36.4844L328.776 34.3379L328.422 34.6914L328.068 35.0449L330.214 37.1914L330.567 36.8379ZM328.422 34.6914L328.07 34.3366L325.443 36.945L325.795 37.2998L326.147 37.6546L328.774 35.0462L328.422 34.6914ZM325.795 37.2998V36.7998H321.003V37.2998V37.7998H325.795V37.2998ZM321.003 37.2998L321.356 37.6534L328.757 30.254L328.403 29.9004L328.05 29.5468L320.649 36.9462L321.003 37.2998ZM328.403 29.9004V30.4004H330.567V29.9004V29.4004H328.403V29.9004ZM458.171 29.9004H457.671V36.8379H458.171H458.671V29.9004H458.171ZM458.171 36.8379L458.524 36.4843L456.378 34.3379L456.024 34.6914L455.671 35.045L457.817 37.1914L458.171 36.8379ZM456.024 34.6914L455.672 34.3366L453.045 36.945L453.397 37.2998L453.75 37.6546L456.377 35.0462L456.024 34.6914ZM453.397 37.2998V36.7998H448.606V37.2998V37.7998H453.397V37.2998ZM448.606 37.2998L448.96 37.6534L456.359 30.2539L456.006 29.9004L455.652 29.5468L448.253 36.9463L448.606 37.2998ZM456.006 29.9004V30.4004H458.171V29.9004V29.4004H456.006V29.9004ZM436.293 29.9004L435.939 30.2539L437.475 31.7891L437.828 31.4355L438.182 31.082L436.647 29.5468L436.293 29.9004ZM437.828 31.4355H437.328V33.5996H437.828H438.328V31.4355H437.828ZM437.828 33.5996V33.0996H426.729V33.5996V34.0996H437.828V33.5996ZM426.729 33.5996H427.229V29.9004H426.729H426.229V33.5996H426.729ZM426.729 29.9004V30.4004H436.293V29.9004V29.4004H426.729V29.9004ZM350.91 29.9004H350.41V31.75H350.91H351.41V29.9004H350.91ZM350.91 31.75V31.25H339.811V31.75V32.25H350.91V31.75ZM339.811 31.75H340.311V31.4355H339.811H339.311V31.75H339.811ZM339.811 31.4355L340.164 31.7891L341.699 30.2539L341.346 29.9004L340.992 29.5468L339.457 31.082L339.811 31.4355ZM341.346 29.9004V30.4004H350.91V29.9004V29.4004H341.346V29.9004ZM411.938 29.9004H411.438V31.75H411.938H412.438V29.9004H411.938ZM411.938 31.75V31.25H400.839V31.75V32.25H411.938V31.75ZM400.839 31.75H401.339V31.4355H400.839H400.339V31.75H400.839ZM400.839 31.4355L401.192 31.7891L402.728 30.2539L402.374 29.9004L402.02 29.5468L400.485 31.082L400.839 31.4355ZM402.374 29.9004V30.4004H411.938V29.9004V29.4004H402.374V29.9004ZM478.514 29.9004H478.014V31.75H478.514H479.014V29.9004H478.514ZM478.514 31.75V31.25H467.414V31.75V32.25H478.514V31.75ZM467.414 31.75H467.914V31.4355H467.414H466.914V31.75H467.414ZM467.414 31.4355L467.768 31.7891L469.303 30.2539L468.949 29.9004L468.596 29.5468L467.061 31.082L467.414 31.4355ZM468.949 29.9004V30.4004H478.514V29.9004V29.4004H468.949V29.9004ZM559.885 29.9004H559.385V31.75H559.885H560.385V29.9004H559.885ZM559.885 31.75V31.25H548.785V31.75V32.25H559.885V31.75ZM548.785 31.75H549.285V31.4355H548.785H548.285V31.75H548.785ZM548.785 31.4355L549.139 31.7891L550.674 30.2539L550.32 29.9004L549.967 29.5468L548.432 31.082L548.785 31.4355ZM550.32 29.9004V30.4004H559.885V29.9004V29.4004H550.32V29.9004Z" fill="url(#paint5_linear_1463_652)" mask="url(#path-5-inside-3_1463_652)"/>
<defs>
<linearGradient id="paint0_linear_1463_652" x1="429.5" y1="25" x2="429.5" y2="328" gradientUnits="userSpaceOnUse">
<stop stop-color="#217C6D" stop-opacity="0.25"/>
<stop offset="0.709504" stop-color="#66A8A4" stop-opacity="0.16"/>
<stop offset="1" stop-color="#BFE5E2" stop-opacity="0.05"/>
</linearGradient>
<linearGradient id="paint1_linear_1463_652" x1="429.5" y1="25" x2="429.5" y2="328" gradientUnits="userSpaceOnUse">
<stop offset="0.615385" stop-color="#8FD0E1"/>
<stop offset="1" stop-color="#0D605F"/>
</linearGradient>
<linearGradient id="paint2_linear_1463_652" x1="429.5" y1="25" x2="429.5" y2="328" gradientUnits="userSpaceOnUse">
<stop stop-color="#217C6D" stop-opacity="0.25"/>
<stop offset="0.709504" stop-color="#66A8A4" stop-opacity="0.16"/>
<stop offset="1" stop-color="#BFE5E2" stop-opacity="0.05"/>
</linearGradient>
<linearGradient id="paint3_linear_1463_652" x1="429.5" y1="25" x2="429.5" y2="328" gradientUnits="userSpaceOnUse">
<stop offset="0.615385" stop-color="#8FD0E1"/>
<stop offset="1" stop-color="#0D605F"/>
</linearGradient>
<linearGradient id="paint4_linear_1463_652" x1="430" y1="0" x2="430" y2="56.5" gradientUnits="userSpaceOnUse">
<stop stop-color="#6FADBC"/>
<stop offset="0.423077" stop-color="#C6E2E1"/>
<stop offset="1" stop-color="#28857E"/>
</linearGradient>
<linearGradient id="paint5_linear_1463_652" x1="430" y1="0" x2="430" y2="56.5" gradientUnits="userSpaceOnUse">
<stop offset="0.615385" stop-color="#96D0D5"/>
<stop offset="1" stop-color="#0F554C"/>
</linearGradient>
</defs>
</svg>
